<svg width="222" height="54" viewBox="0 0 222 54" fill="none" xmlns="http://www.w3.org/2000/svg">
<path d="M51.1642 47.69L53.3148 42.9373H53.8138L55.9642 47.69H55.3913L54.8384 46.4428H52.2697L51.7103 47.69H51.1641H51.1642ZM52.4789 45.964H54.6293L53.5577 43.5573L52.4791 45.964H52.4789ZM59.008 47.69V42.9712H61.0169C61.5696 42.9712 61.9809 43.1103 62.2503 43.389C62.4528 43.6003 62.554 43.8565 62.554 44.1576C62.554 44.6699 62.3043 45.0338 61.8056 45.2495C62.4796 45.4517 62.8168 45.8359 62.8168 46.4024C62.8168 46.8021 62.6616 47.1169 62.3515 47.3463C62.0415 47.5752 61.6259 47.69 61.1044 47.69H59.008ZM59.5339 47.2114H61.1179C61.4772 47.2114 61.7606 47.136 61.9672 46.9855C62.1739 46.835 62.2776 46.625 62.2776 46.3552C62.2776 46.0944 62.1706 45.8947 61.9569 45.7554C61.7436 45.616 61.4325 45.5462 61.0234 45.5462H59.5338V47.2116L59.5339 47.2114ZM59.5339 45.0743H60.9292C61.2574 45.0743 61.5201 45.0002 61.7179 44.8518C61.9157 44.7035 62.0146 44.4922 62.0146 44.2183C62.0146 43.9799 61.9237 43.7925 61.7417 43.6551C61.5596 43.5182 61.3024 43.4498 60.9695 43.4498H59.5339V45.0743ZM67.2359 47.69V43.4564H65.6517V42.9712H69.3593V43.4564H67.7751V47.69H67.2359ZM76.3943 47.0531C75.9405 47.5317 75.3629 47.7709 74.6617 47.7709C73.9605 47.7709 73.3852 47.5328 72.9357 47.0564C72.4864 46.58 72.2616 46.0049 72.2616 45.3304C72.2616 44.661 72.4885 44.0867 72.9427 43.6081C73.3964 43.1295 73.9739 42.89 74.6753 42.89C75.3762 42.89 75.9516 43.1284 76.4009 43.6048C76.8505 44.0812 77.0749 44.6562 77.0749 45.3304C77.0749 46.0002 76.848 46.5742 76.3943 47.0531ZM73.3437 46.7124C73.6964 47.09 74.1404 47.2787 74.6753 47.2787C75.2099 47.2787 75.6516 47.0911 75.9998 46.7159C76.3481 46.3406 76.522 45.8788 76.522 45.3304C76.522 44.7866 76.346 44.3259 75.9931 43.9485C75.6401 43.5711 75.1962 43.382 74.6617 43.382C74.1269 43.382 73.6852 43.5697 73.337 43.9452C72.9885 44.3204 72.8144 44.7821 72.8144 45.3304C72.8144 45.8745 72.9909 46.3349 73.3437 46.7124ZM81.8784 47.7707C81.1234 47.7707 80.4672 47.5169 79.9099 47.0087L80.2266 46.6383C80.7031 47.0876 81.2559 47.3124 81.8853 47.3124C82.1862 47.3124 82.4448 47.2282 82.6604 47.0596C82.8762 46.891 82.984 46.6718 82.984 46.4024C82.984 46.1102 82.8673 45.8921 82.6339 45.7486C82.4 45.6047 82.0922 45.5329 81.7102 45.5329H81.191V45.0944H81.7102C82.0518 45.0944 82.329 45.0148 82.5427 44.8552C82.756 44.6957 82.8628 44.4789 82.8628 44.2046C82.8628 43.9621 82.7629 43.7609 82.5628 43.6016C82.3628 43.442 82.1078 43.3621 81.7976 43.3621C81.2674 43.3621 80.8042 43.5397 80.409 43.8947L80.0989 43.5242C80.3459 43.3129 80.6034 43.1556 80.8707 43.0523C81.1381 42.9486 81.4516 42.8973 81.8113 42.8973C82.2785 42.8973 82.6604 43.0164 82.9571 43.2544C83.2538 43.4925 83.4018 43.7937 83.4018 44.1578C83.4018 44.6925 83.1143 45.0631 82.5393 45.27C82.8405 45.3598 83.0809 45.5014 83.2605 45.6947C83.4402 45.8878 83.5302 46.1328 83.5302 46.4295C83.5302 46.8114 83.3764 47.1307 83.0686 47.3868C82.7604 47.643 82.3641 47.7709 81.8785 47.7709L81.8784 47.7707ZM86.3111 47.6898L88.4615 42.9372H88.9607L91.1111 47.6898H90.5379L89.9851 46.4426H87.4166L86.8571 47.6898H86.3109H86.3111ZM87.6256 45.9638H89.7761L88.7043 43.5571L87.6257 45.9638H87.6256ZM94.1547 47.6898V42.9711H97.8759V47.6898H97.3433V43.4563H94.6871V47.6898H94.1545H94.1547ZM104.142 47.6898V45.6743C103.935 45.7956 103.691 45.9034 103.41 45.9977C103.13 46.0923 102.883 46.1393 102.672 46.1393C102.205 46.1393 101.834 46.0205 101.56 45.7821C101.286 45.5441 101.149 45.2 101.149 44.7507V42.9712H101.681V44.663C101.681 44.9641 101.771 45.2025 101.951 45.3778C102.131 45.553 102.385 45.6406 102.713 45.6406C103.149 45.6406 103.625 45.4881 104.142 45.1823V42.9712H104.675V47.69H104.142L104.142 47.6898ZM107.718 47.6898L109.869 42.9372H110.368L112.518 47.6898H111.945L111.392 46.4426H108.824L108.264 47.6898H107.718H107.718ZM109.033 45.9638H111.183L110.112 43.5571L109.033 45.9638H109.033ZM117.719 47.7705C117.04 47.7705 116.477 47.5358 116.027 47.066C115.578 46.5964 115.353 46.0177 115.353 45.3301C115.353 44.6515 115.58 44.0751 116.034 43.6011C116.488 43.1267 117.056 42.8896 117.739 42.8896C118.135 42.8896 118.472 42.9539 118.751 43.0819C119.029 43.2099 119.301 43.3998 119.566 43.6515L119.216 44.0289C118.762 43.5975 118.267 43.3817 117.733 43.3817C117.211 43.3817 116.777 43.5684 116.428 43.9415C116.08 44.3145 115.906 44.7773 115.906 45.3301C115.906 45.8785 116.081 46.3403 116.432 46.7155C116.782 47.0906 117.216 47.2783 117.733 47.2783C118.038 47.2783 118.308 47.2222 118.542 47.1101C118.776 46.9974 119.014 46.8267 119.256 46.5978L119.607 46.9682C119.342 47.2335 119.063 47.4335 118.771 47.5682C118.479 47.7031 118.128 47.7704 117.719 47.7704L117.719 47.7705ZM123.898 47.6896V43.4561H122.313V42.9709H126.021V43.4561H124.437V47.6896H123.898ZM129.133 47.6896V42.9709H129.665V46.8873L132.483 42.9709H132.988V47.6896H132.463V43.7729L129.652 47.6896H129.133Z" fill="#FEFEFE"/>
<path d="M65.8745 16.2204C67.2468 16.2204 68.5015 16.4558 69.6383 16.9271C70.7752 17.3982 71.6712 18.0793 72.3267 18.9703C72.9821 19.8612 73.31 20.9215 73.31 22.1503C73.31 22.6419 73.2485 23.1643 73.1256 23.7173C72.593 26.1345 71.5689 27.8907 70.0529 28.9866C68.5374 30.0825 66.3352 30.6307 63.4469 30.6307H59.2069L57.8548 36.8986C57.814 37.1237 57.6964 37.3183 57.5017 37.4821C57.3071 37.6459 57.0972 37.7281 56.8719 37.7281H52.8467C52.6213 37.7281 52.4422 37.6459 52.309 37.4821C52.1757 37.3183 52.1297 37.1237 52.1708 36.8986L56.4108 17.0497C56.452 16.8242 56.5696 16.6297 56.7643 16.4659C56.9588 16.3021 57.1686 16.2202 57.394 16.2202H65.8745V16.2204ZM126.312 31.3988C125.042 31.1734 124.08 30.7229 123.424 30.0469C122.768 29.3712 122.441 28.5107 122.441 27.466C122.441 27.036 122.482 26.6262 122.563 26.2368C122.871 24.762 123.675 23.5946 124.976 22.7341C126.276 21.8739 128.105 21.4438 130.46 21.4438C131.75 21.4438 132.938 21.6536 134.024 22.0737C135.11 22.4934 135.95 23.0362 136.544 23.7022C137.137 24.3678 137.394 25.0489 137.312 25.7453C137.291 25.9706 137.179 26.1651 136.974 26.3289C136.769 26.4928 136.554 26.5747 136.329 26.5747H132.672C132.529 26.5747 132.406 26.5493 132.304 26.498C132.201 26.4466 132.078 26.3596 131.935 26.2367C131.689 26.0319 131.428 25.873 131.151 25.7604C130.875 25.6478 130.45 25.5916 129.876 25.5916C129.323 25.5916 128.878 25.6838 128.54 25.8681C128.202 26.0524 128.033 26.3392 128.033 26.7284C128.033 26.9742 128.181 27.1483 128.478 27.2507C128.775 27.3533 129.456 27.4965 130.521 27.6809L131.996 27.9268C133.451 28.1725 134.536 28.659 135.253 29.3863C135.97 30.1134 136.329 30.9991 136.329 32.0442C136.329 32.4536 136.288 32.8224 136.206 33.15C135.898 34.6454 135.054 35.8335 133.671 36.7144C132.288 37.5952 130.286 38.0354 127.664 38.0354C126.292 38.0354 125.058 37.8103 123.962 37.3594C122.866 36.9089 122.026 36.3403 121.442 35.6543C120.858 34.968 120.607 34.2972 120.689 33.6417C120.71 33.4165 120.828 33.2218 121.043 33.058C121.258 32.8942 121.478 32.8121 121.703 32.8121H125.513C125.657 32.8121 125.769 32.8379 125.851 32.889C125.933 32.9404 126.025 33.0273 126.128 33.1502C126.312 33.3756 126.543 33.5548 126.819 33.6881C127.096 33.821 127.572 33.8876 128.248 33.8876C128.883 33.8876 129.436 33.8005 129.907 33.6264C130.378 33.4524 130.655 33.222 130.737 32.9352C130.778 32.6894 130.726 32.5 130.583 32.3666C130.44 32.2337 130.194 32.1261 129.846 32.0442C129.497 31.9619 128.903 31.8495 128.064 31.7061L126.312 31.3986L126.312 31.3988ZM114.821 31.4912C114.78 31.7368 114.759 31.9109 114.759 32.0134C114.759 32.6483 115.108 32.9661 115.804 32.9661H118.262C118.487 32.9661 118.666 33.048 118.8 33.2118C118.933 33.3756 118.979 33.5701 118.938 33.7956L118.262 36.899C118.221 37.1241 118.103 37.3186 117.908 37.4824C117.714 37.6462 117.504 37.7284 117.279 37.7284H114.667C113.704 37.7284 112.798 37.5337 111.948 37.1447C111.098 36.7554 110.412 36.1923 109.889 35.4548C109.367 34.7174 109.106 33.857 109.106 32.8738C109.106 32.464 109.147 32.0646 109.228 31.6756L110.335 26.5134H108.061C107.836 26.5134 107.662 26.4315 107.539 26.2677C107.416 26.1039 107.375 25.9092 107.416 25.684L108.061 22.5806C108.102 22.3553 108.225 22.1608 108.43 21.997C108.635 21.8329 108.849 21.7511 109.075 21.7511H111.348L112.424 16.7427C112.465 16.5174 112.583 16.3227 112.777 16.1589C112.972 15.9951 113.182 15.9131 113.407 15.9131H117.278C117.504 15.9131 117.683 15.9951 117.816 16.1589C117.949 16.3227 117.995 16.5174 117.954 16.7427L116.879 21.7511H120.351C120.576 21.7511 120.75 21.8329 120.873 21.997C120.996 22.1608 121.037 22.3553 120.996 22.5806L120.351 25.684C120.31 25.9092 120.187 26.1039 119.982 26.2677C119.777 26.4315 119.562 26.5134 119.337 26.5134H115.865L114.82 31.4912H114.821ZM106.709 21.7511C106.934 21.7511 107.108 21.8329 107.231 21.997C107.354 22.1608 107.395 22.3553 107.354 22.5806L106.709 25.684C106.668 25.9092 106.545 26.1039 106.34 26.2677C106.135 26.4315 105.92 26.5134 105.695 26.5134H102.899C101.977 26.5134 101.225 26.7543 100.641 27.2355C100.057 27.7168 99.673 28.4185 99.4886 29.3403L97.8601 36.899C97.8191 37.1241 97.7013 37.3186 97.507 37.4824C97.3124 37.6462 97.1023 37.7284 96.8772 37.7284H93.0056C92.7802 37.7284 92.6011 37.6462 92.4681 37.4824C92.3347 37.3186 92.2887 37.1241 92.3297 36.899L95.3717 22.5806C95.4127 22.3553 95.5354 22.1608 95.7403 21.997C95.9451 21.8329 96.1602 21.7511 96.3853 21.7511H99.9496C100.175 21.7511 100.349 21.8329 100.472 21.997C100.595 22.1608 100.636 22.3553 100.595 22.5806L100.441 23.2872C100.953 22.7751 101.522 22.3912 102.147 22.135C102.771 21.8791 103.575 21.7511 104.559 21.7511H106.71H106.709ZM86.2763 22.5806C86.3174 22.3553 86.4352 22.1608 86.6297 21.997C86.8242 21.8329 87.0342 21.7511 87.2594 21.7511H91.1308C91.3561 21.7511 91.5355 21.8329 91.6686 21.997C91.8016 22.1608 91.8476 22.3553 91.8069 22.5806L88.7955 36.899C88.7548 37.1241 88.6371 37.3186 88.4425 37.4824C88.2478 37.6462 88.038 37.7284 87.8126 37.7284H83.9107C83.6852 37.7284 83.5058 37.6462 83.3728 37.4824C83.2397 37.3186 83.1937 37.1241 83.2344 36.899L83.3882 36.1923C83.0397 36.7657 82.5227 37.2164 81.8367 37.544C81.1503 37.8718 80.1722 38.0356 78.9022 38.0356C77.9601 38.0356 77.0691 37.8204 76.229 37.3905C75.3893 36.9603 74.7134 36.3202 74.2014 35.47C73.6891 34.6202 73.4331 33.5907 73.4331 32.3822C73.4331 31.8495 73.4741 31.3375 73.5558 30.8458C73.6585 30.1699 73.8324 29.3403 74.0781 28.3572C74.6722 26.0425 75.6758 24.3117 77.0895 23.1645C78.5028 22.0173 80.1823 21.4438 82.1284 21.4438C83.1935 21.4438 84.0691 21.6332 84.7554 22.0123C85.4416 22.3912 85.8974 22.8163 86.1225 23.2874L86.2762 22.5807L86.2763 22.5806ZM79.1173 30.6001C79.0967 30.7229 79.0866 30.9074 79.0866 31.1533C79.0866 32.5666 79.824 33.2733 81.2989 33.2733C82.1387 33.2733 82.8198 33.0377 83.342 32.5666C83.8645 32.0953 84.2485 31.5118 84.4942 30.8152C84.6173 30.4669 84.725 30.0471 84.817 29.5554C84.9094 29.0638 84.9554 28.6643 84.9554 28.3572C84.9554 27.7429 84.7863 27.2304 84.4482 26.8211C84.1102 26.4113 83.5625 26.2064 82.8045 26.2064C81.9237 26.2064 81.2117 26.4523 80.6689 26.9438C80.126 27.4355 79.7318 28.0807 79.4859 28.8796C79.3015 29.4122 79.1788 29.9858 79.1173 30.6004V30.6001ZM64.0002 25.8375C64.9016 25.8375 65.6645 25.6378 66.2893 25.2385C66.9139 24.839 67.3188 24.2295 67.5031 23.4103C67.5438 23.1234 67.5644 22.9288 67.5644 22.8266C67.5644 22.212 67.334 21.7513 66.8732 21.444C66.4122 21.1365 65.7926 20.983 65.0142 20.983H61.2352L60.2209 25.8377H64.0002V25.8375Z" fill="#FEFEFE"/>
<path d="M152.153 16.2206C153.525 16.2206 154.78 16.456 155.917 16.9273C157.053 17.3984 157.95 18.0795 158.605 18.9705C159.261 19.8614 159.588 20.9218 159.588 22.1506C159.588 22.6421 159.527 23.1645 159.404 23.7175C158.871 26.1347 157.847 27.8909 156.331 28.9868C154.816 30.0827 152.613 30.6309 149.725 30.6309H145.485L144.133 36.8989C144.092 37.124 143.975 37.3185 143.78 37.4823C143.585 37.6461 143.376 37.7283 143.15 37.7283H139.125C138.9 37.7283 138.721 37.6461 138.587 37.4823C138.454 37.3185 138.408 37.124 138.449 36.8989L142.689 17.0499C142.73 16.8245 142.848 16.6299 143.043 16.4661C143.237 16.3023 143.447 16.2205 143.672 16.2205H152.153V16.2206ZM215.14 31.4912C215.099 31.7369 215.079 31.911 215.079 32.0135C215.079 32.6484 215.427 32.9662 216.124 32.9662H218.582C218.807 32.9662 218.986 33.0481 219.119 33.2119C219.253 33.3757 219.299 33.5702 219.258 33.7956L218.582 36.899C218.541 37.1241 218.423 37.3187 218.228 37.4825C218.034 37.6463 217.824 37.7285 217.598 37.7285H214.987C214.024 37.7285 213.118 37.5338 212.268 37.1447C211.418 36.7555 210.731 36.1924 210.209 35.4548C209.687 34.7174 209.425 33.8571 209.425 32.8738C209.425 32.464 209.467 32.0647 209.548 31.6756L210.654 26.5135H208.381C208.155 26.5135 207.981 26.4316 207.858 26.2678C207.736 26.104 207.695 25.9093 207.736 25.6841L208.381 22.5806C208.422 22.3554 208.545 22.1608 208.75 21.9971C208.954 21.8329 209.169 21.7512 209.395 21.7512H211.668L212.744 16.7427C212.785 16.5175 212.902 16.3228 213.097 16.159C213.292 15.9952 213.501 15.9131 213.727 15.9131H217.598C217.823 15.9131 218.003 15.9952 218.136 16.159C218.269 16.3228 218.315 16.5175 218.274 16.7427L217.199 21.7512H220.671C220.896 21.7512 221.07 21.8329 221.193 21.9971C221.316 22.1608 221.357 22.3554 221.316 22.5806L220.671 25.6841C220.63 25.9093 220.507 26.104 220.302 26.2678C220.097 26.4316 219.882 26.5135 219.657 26.5135H216.185L215.14 31.4912H215.14ZM203.557 36.899C203.516 37.1241 203.398 37.3187 203.204 37.4825C203.009 37.6463 202.799 37.7285 202.574 37.7285H198.703C198.477 37.7285 198.298 37.6463 198.165 37.4825C198.032 37.3187 197.986 37.1241 198.026 36.899L199.686 29.1252C199.747 28.777 199.778 28.4699 199.778 28.2034C199.778 26.872 199.061 26.2063 197.627 26.2063C196.746 26.2063 196.03 26.4625 195.476 26.9746C194.923 27.4868 194.555 28.2036 194.37 29.1254L192.711 36.8992C192.67 37.1243 192.552 37.3188 192.358 37.4826C192.163 37.6464 191.953 37.7287 191.728 37.7287H187.856C187.631 37.7287 187.452 37.6464 187.319 37.4826C187.186 37.3188 187.14 37.1243 187.181 36.8992L190.223 22.5808C190.264 22.3555 190.386 22.161 190.591 21.9972C190.796 21.8331 191.011 21.7514 191.236 21.7514H194.954C195.179 21.7514 195.353 21.8331 195.477 21.9972C195.599 22.161 195.64 22.3555 195.599 22.5808L195.446 23.2875C196.675 22.0584 198.15 21.444 199.87 21.444C201.55 21.444 202.922 21.8843 203.987 22.765C205.052 23.6458 205.585 24.9262 205.585 26.606C205.585 27.2001 205.513 27.8145 205.37 28.4496L203.557 36.8992L203.557 36.899ZM187.365 19.2317C187.324 19.4571 187.206 19.6516 187.011 19.8154C186.817 19.9792 186.607 20.0611 186.382 20.0611H182.51C182.285 20.0611 182.106 19.9792 181.972 19.8154C181.839 19.6516 181.793 19.4571 181.834 19.2317L182.51 16.1283C182.551 15.9028 182.674 15.7085 182.879 15.5445C183.084 15.3807 183.299 15.2988 183.524 15.2988H187.395C187.621 15.2988 187.795 15.3807 187.918 15.5445C188.041 15.7085 188.082 15.9028 188.041 16.1283L187.365 19.2317ZM183.616 36.899C183.575 37.1241 183.457 37.3187 183.263 37.4825C183.068 37.6463 182.858 37.7285 182.633 37.7285H178.762C178.536 37.7285 178.357 37.6463 178.224 37.4825C178.091 37.3187 178.045 37.1241 178.086 36.899L181.128 22.5806C181.169 22.3554 181.291 22.1608 181.496 21.9971C181.701 21.8329 181.916 21.7512 182.141 21.7512H186.013C186.238 21.7512 186.412 21.8329 186.535 21.9971C186.658 22.1608 186.699 22.3554 186.658 22.5806L183.616 36.899ZM176.426 31.0917C175.218 35.7211 172.043 38.0356 166.901 38.0356C165.59 38.0356 164.382 37.7539 163.276 37.1907C162.17 36.6276 161.294 35.8645 160.649 34.9018C160.004 33.939 159.681 32.8843 159.681 31.7371C159.681 31.4298 159.712 31.1125 159.773 30.7847C159.957 29.8629 160.131 29.0742 160.295 28.4187C160.808 26.3293 161.857 24.6445 163.445 23.3642C165.032 22.0841 167.157 21.444 169.82 21.444C171.131 21.444 172.34 21.7258 173.446 22.2888C174.552 22.8522 175.428 23.6101 176.073 24.5626C176.718 25.515 177.041 26.5648 177.041 27.7119C177.041 28.0396 177.01 28.3775 176.949 28.7259C176.826 29.5656 176.652 30.3543 176.426 31.0917ZM167.608 33.2733C168.427 33.2733 169.139 33.0532 169.744 32.6127C170.348 32.1723 170.763 31.563 170.988 30.7847C171.213 30.0472 171.357 29.3508 171.418 28.6953C171.439 28.5928 171.449 28.4496 171.449 28.2652C171.449 27.6095 171.244 27.1027 170.834 26.7444C170.425 26.3861 169.851 26.2065 169.114 26.2065C168.294 26.2065 167.588 26.4266 166.994 26.8671C166.4 27.3074 165.99 27.9169 165.764 28.6953C165.539 29.4327 165.396 30.1291 165.334 30.7847C165.314 30.887 165.304 31.0405 165.304 31.2455C165.304 31.9009 165.503 32.4029 165.903 32.7512C166.302 33.0994 166.871 33.2735 167.608 33.2735V33.2733ZM150.279 25.8377C151.18 25.8377 151.943 25.638 152.568 25.2387C153.192 24.8392 153.597 24.2297 153.781 23.4106C153.822 23.1237 153.843 22.929 153.843 22.8268C153.843 22.2122 153.612 21.7515 153.152 21.4442C152.691 21.1367 152.071 20.9832 151.293 20.9832H147.513L146.499 25.8379H150.279V25.8377Z" fill="#E31A40"/>
<path fill-rule="evenodd" clip-rule="evenodd" d="M20.8095 53.7836L4.44614 32.3768C2.05985 29.065 0.65332 25.0006 0.65332 20.6071C0.65332 9.47521 9.67737 0.451338 20.8093 0.451172C31.9411 0.451338 40.9651 9.47521 40.9651 20.6071C40.9651 25.0006 39.5586 29.0652 37.1723 32.3768L32.5981 38.3609L26.9429 30.9626L29.567 27.5295C29.6435 27.4331 29.7179 27.3354 29.791 27.2366L29.8083 27.214H29.8073C31.1681 25.3638 31.9726 23.0795 31.9726 20.6068C31.9726 14.4412 26.9746 9.44348 20.8093 9.44348C14.6438 9.44348 9.64597 14.4413 9.64597 20.6068C9.64597 22.9974 10.398 25.2123 11.6774 27.0283H11.6766L11.6856 27.0399C11.8499 27.2723 12.0225 27.4984 12.2034 27.7173L26.4688 46.3794L20.8093 53.7835L20.8095 53.7836Z" fill="#FEFEFE"/>
<path fill-rule="evenodd" clip-rule="evenodd" d="M21.2966 15.1095C21.511 15.1304 21.722 15.1638 21.9286 15.209L22.059 15.1749L22.3903 14.4515L22.4474 14.4237L22.722 14.488L22.9818 14.5975L23.0117 14.6535L22.8544 15.4336L22.94 15.5376C23.1363 15.6236 23.3265 15.7208 23.5101 15.8286L23.6456 15.8368L24.1842 15.251L24.247 15.2424L24.4884 15.3882L24.7017 15.5725L24.7128 15.6351L24.3222 16.3281L24.3718 16.4547L24.3706 16.4545C24.5302 16.5966 24.6816 16.7479 24.8234 16.9076V16.9062L24.9498 16.9559L25.6431 16.5653L25.7057 16.5765L25.8899 16.7898L26.0358 17.031L26.0271 17.0939L25.4414 17.6325L25.4495 17.7681C25.5572 17.9514 25.6544 18.1416 25.7404 18.338L25.8446 18.4236L26.6247 18.2664L26.6806 18.2963L26.7901 18.5561L26.8544 18.8307L26.8266 18.8879L26.103 19.2191L26.069 19.3498C26.1142 19.5561 26.1479 19.767 26.1688 19.9814V19.9812L26.2421 20.0959L27.0326 20.1874L27.0767 20.2331L27.1004 20.5141L27.0767 20.7951L27.0326 20.8409L26.2421 20.9323L26.1688 21.0469C26.1479 21.2615 26.1145 21.4725 26.0692 21.679L26.103 21.809L26.8266 22.1403L26.8544 22.1974L26.7901 22.472L26.6806 22.732L26.6247 22.7619L25.8446 22.6046L25.7406 22.69C25.6545 22.8863 25.5573 23.0767 25.4495 23.2603L25.4414 23.3956L26.0271 23.9342L26.0358 23.9972L25.8899 24.2384L25.7055 24.4518L25.6431 24.463L24.9498 24.0722L24.8234 24.1219L24.8236 24.1204C24.6816 24.2802 24.5301 24.4317 24.3703 24.5736H24.3718L24.3222 24.7L24.7128 25.3932L24.7017 25.4557L24.4884 25.6399L24.247 25.7859L24.1842 25.7771L23.6456 25.1916L23.5099 25.1995L23.5101 25.1992C23.3269 25.307 23.1367 25.4042 22.9403 25.4902L22.8544 25.5947L23.0117 26.3746L22.9818 26.4308L22.722 26.5401L22.4474 26.6046L22.3903 26.5766L22.059 25.8532L21.9286 25.8193C21.722 25.8645 21.5112 25.8979 21.2966 25.9186L21.2969 25.919L21.1823 25.9922L21.0907 26.7826L21.0451 26.8267L20.764 26.8504L20.4829 26.8267L20.4372 26.7826L20.3459 25.9922L20.2312 25.919C20.0166 25.8981 19.8057 25.8645 19.5992 25.8193L19.4689 25.8532L19.1377 26.5766L19.0805 26.6046L18.8061 26.5401L18.5461 26.4308L18.5162 26.3746L18.6736 25.5947L18.5882 25.4907C18.3918 25.4045 18.2014 25.3073 18.0179 25.1995L17.8825 25.1916L17.3439 25.7771L17.281 25.7859L17.0398 25.6399L16.8263 25.4557L16.8152 25.3932L17.2059 24.7L17.1562 24.5736H17.1577C16.9979 24.4316 16.8464 24.2802 16.7046 24.1204V24.1219L16.5781 24.0722L15.8849 24.463L15.8225 24.4518L15.6381 24.2384L15.4922 23.9972L15.501 23.9342L16.0866 23.3956L16.0786 23.2601L16.079 23.2603C15.9711 23.0769 15.874 22.8868 15.7879 22.6903L15.6834 22.6046L14.9035 22.7619L14.8473 22.732L14.738 22.472L14.6736 22.1974L14.7013 22.1403L15.4249 21.8092L15.4588 21.6788C15.4136 21.4722 15.3803 21.2612 15.3593 21.0466L15.3592 21.0469L15.2859 20.9323L14.4955 20.8409L14.4513 20.7951L14.4277 20.5141L14.4513 20.2331L14.4955 20.1874L15.2859 20.0959L15.3592 19.9812V19.9814C15.3801 19.7668 15.4136 19.5558 15.4588 19.3492L15.4249 19.2191L14.7013 18.8879L14.6736 18.8307L14.738 18.5561L14.8473 18.2963L14.9035 18.2664L15.6834 18.4237L15.7874 18.3382C15.8735 18.1418 15.9706 17.9516 16.0786 17.7681L16.0866 17.6325L15.501 17.0939L15.4922 17.031L15.6381 16.7898L15.8225 16.5765L15.8849 16.5653L16.5781 16.9559L16.7046 16.9062V16.9077C16.8466 16.7481 16.9979 16.5966 17.1577 16.4545L17.1562 16.4547L17.2059 16.3283L16.8152 15.6351L16.8263 15.5725L17.0398 15.3882L17.281 15.2424L17.3439 15.251L17.8825 15.8368L18.0181 15.8286L18.0179 15.8291C18.2011 15.7213 18.3913 15.624 18.5877 15.5379L18.6736 15.4336L18.5162 14.6535L18.5461 14.5975L18.8061 14.488L19.0807 14.4237L19.1377 14.4515L19.4689 15.1749L19.5993 15.209C19.806 15.1638 20.017 15.1304 20.2316 15.1095L20.2312 15.1093L20.3459 15.0361L20.4372 14.2455L20.4829 14.2015L20.764 14.1777L21.0451 14.2015L21.0907 14.2455L21.1823 15.0361L21.2969 15.1093L21.2966 15.1095ZM20.7643 18.403C21.9298 18.403 22.8747 19.3478 22.8747 20.5133C22.8747 21.679 21.9298 22.6239 20.7643 22.6239C19.5987 22.6239 18.6538 21.679 18.6538 20.5133C18.6538 19.3478 19.5987 18.403 20.7643 18.403Z" fill="#E31A40"/>
<path d="M136.737 46.4004H214.946V47.69H136.737V46.4004Z" fill="#E31A40"/>
</svg>
